<svg version="1.1" xmlns="http://www.w3.org/2000/svg" xmlns:xlink="http://www.w3.org/1999/xlink" width="120px" height="120px" viewBox="0,0,255.99808,255.99808"><g fill="#fcf5e9" fill-rule="nonzero" stroke="none" stroke-width="1" stroke-linecap="butt" stroke-linejoin="miter" stroke-miterlimit="10" stroke-dasharray="" stroke-dashoffset="0" font-family="none" font-weight="none" font-size="none" text-anchor="none" style="mix-blend-mode: normal"><g transform="scale(8.53333,8.53333)"><path d="M15,3c-8.25,0 -11,4.096 -11,5c0,0.552 0.448,1 1,1h20c0.552,0 1,-0.421 1,-1c0,-0.579 -2.75,-5 -11,-5zM5,11c-1.105,0 -2,0.895 -2,2c0,1.105 0.895,2 2,2h20c1.105,0 2,-0.895 2,-2c0,-1.105 -0.895,-2 -2,-2zM4,17c-0.36064,-0.0051 -0.69608,0.18438 -0.87789,0.49587c-0.18181,0.3115 -0.18181,0.69676 0,1.00825c0.18181,0.3115 0.51725,0.50097 0.87789,0.49587h22c0.36064,0.0051 0.69608,-0.18438 0.87789,-0.49587c0.18181,-0.3115 0.18181,-0.69676 0,-1.00825c-0.18181,-0.3115 -0.51725,-0.50097 -0.87789,-0.49587zM5,21c-0.552,0 -1,0.448 -1,1v1c0,1.105 0.895,2 2,2h18c1.105,0 2,-0.895 2,-2v-1c0,-0.552 -0.448,-1 -1,-1z"></path></g></g></svg>