<!DOCTYPE svg PUBLIC "-//W3C//DTD SVG 1.1//EN" "http://www.w3.org/Graphics/SVG/1.1/DTD/svg11.dtd">
<!-- Uploaded to: SVG Repo, www.svgrepo.com, Transformed by: SVG Repo Mixer Tools -->
<svg fill="#ffffff" height="800px" width="800px" version="1.1" id="Layer_1" xmlns="http://www.w3.org/2000/svg" xmlns:xlink="http://www.w3.org/1999/xlink" viewBox="0 0 512 512" xml:space="preserve" stroke="#ffffff">
<g id="SVGRepo_bgCarrier" stroke-width="0"/>
<g id="SVGRepo_tracerCarrier" stroke-linecap="round" stroke-linejoin="round"/>
<g id="SVGRepo_iconCarrier"> <g> <g> <path d="M477.313,166.08c3.617-15.375,5.55-31.229,5.706-47.19c0.381-39.308-10.055-77.802-30.182-111.322 c-3.643-6.067-10.665-8.876-17.474-6.984c-6.836,1.898-11.423,7.949-11.415,15.048v0.22c0,22.645-3.85,44.661-11.432,65.638 c-42.377-35.577-96.983-57.04-156.515-57.04c-54.194,0-106.749,18.073-149.346,51.109c-6.64-18.053-10.115-37.305-10.115-57.022 V18.36c0.008-6.72-4.329-12.442-10.792-14.237c-6.443-1.788-13.083,0.865-16.531,6.605 c-17.435,29.038-26.474,62.384-26.144,96.431c0.281,28.939,7.007,56.536,19.993,82.026c1.684,3.304,5.029,5.206,8.498,5.206 c1.456,0,2.934-0.335,4.319-1.041c4.688-2.39,6.554-8.127,4.164-12.818c-11.636-22.84-17.664-47.589-17.914-73.557 c-0.245-25.262,5.26-50.088,16.017-72.644c3.539,41.624,21.025,80.618,50.123,111.154c3.629,3.811,9.662,3.957,13.473,0.325 c3.811-3.63,3.955-9.663,0.325-13.473c-11.116-11.665-20.339-24.709-27.511-38.724c39.909-32.352,89.869-50.105,141.442-50.105 c123.91,0,224.715,100.808,224.715,224.717S379.911,492.941,256.002,492.941S31.284,392.135,31.284,268.226 c0-15.06,1.498-30.114,4.453-44.745c1.042-5.159-2.296-10.185-7.455-11.227c-5.157-1.043-10.186,2.296-11.227,7.455 c-3.204,15.868-4.831,32.193-4.831,48.518C12.225,402.644,121.582,512,256.001,512c134.418,0,243.774-109.356,243.774-243.774 C499.776,231.771,491.718,197.168,477.313,166.08z M462.685,139.118c-9.987-15.935-21.758-30.639-35.043-43.825 c8.631-21.371,13.667-43.786,15.002-66.867c14.282,27.782,21.623,58.741,21.316,90.282 C463.893,125.547,463.454,132.36,462.685,139.118z"/> </g> </g> <g> <g> <path d="M395.815,358.71c-4.121-3.276-10.115-2.589-13.39,1.53c-15.402,19.378-35.438,30.661-56.415,31.77 c-21.284,1.117-42.188-7.679-58.904-24.784c-3.678-3.764-9.712-3.835-13.476-0.155c-3.763,3.68-3.833,9.712-0.155,13.476 c19.406,19.857,43.703,30.619,68.87,30.619c1.554,0,3.11-0.041,4.668-0.125c26.507-1.401,51.485-15.231,70.33-38.941 C400.619,367.979,399.934,361.984,395.815,358.71z"/> </g> </g> <g> <g> <path d="M289.4,246.501c-0.61-1.337-1.522-2.512-2.662-3.438c-9.321-7.564-23.323-14.717-39.538-23 c-3.792-1.936-7.738-3.952-11.808-6.066c-6.047-3.141-10.828-5.962-15.89-8.951c-6.241-3.683-12.696-7.493-22.033-12.222 c-4.694-2.381-10.428-0.502-12.806,4.195c-2.379,4.695-0.501,10.429,4.195,12.806c8.79,4.452,14.974,8.103,20.955,11.634 c5.058,2.986,10.291,6.073,16.797,9.452c1.497,0.776,2.976,1.541,4.438,2.293c-3.325,3.147-6.077,7.007-8.12,11.46 c-4.785,10.428-4.944,22.549-0.427,32.427c6.174,13.501,19.546,21.483,33.504,21.483c5.109,0,10.297-1.07,15.24-3.33 C289.687,286.811,297.831,264.944,289.4,246.501z M263.318,277.913c-8.887,4.062-19.421,0.138-23.486-8.748 c-2.177-4.76-2.013-11.258,0.418-16.553c1.485-3.237,4.422-7.436,9.984-9.044c0.202-0.058,0.402-0.123,0.598-0.193 c8.866,4.647,16.49,8.93,21.995,13.017C275.531,264.813,271.558,274.144,263.318,277.913z"/> </g> </g> <g> <g> <path d="M466.091,190.999c-2.662-4.542-8.502-6.063-13.04-3.401l-2.996,1.757c-19.605,11.5-21.205,12.439-45.318,24.097 c-16.068,7.768-29.297,15.459-39.315,22.861c-1.299,0.959-2.333,2.234-3.004,3.701c-4.086,8.935-4.447,18.927-1.019,28.134 c3.429,9.205,10.24,16.527,19.173,20.612c4.878,2.231,10.069,3.352,15.276,3.352c4.331,0,8.674-0.775,12.856-2.333 c9.205-3.429,16.527-10.24,20.613-19.175c4.437-9.707,4.781-21.03,0.942-31.062c-1.916-5.007-4.809-9.462-8.489-13.168 c16.919-8.254,20.749-10.5,37.927-20.576l2.992-1.757C467.23,201.377,468.753,195.54,466.091,190.999z M411.983,262.678 c-1.969,4.306-5.497,7.587-9.932,9.239c-4.433,1.649-9.249,1.476-13.553-0.49c-4.306-1.969-7.587-5.497-9.239-9.932 c-1.386-3.72-1.487-7.705-0.321-11.435c6.486-4.584,14.406-9.336,23.651-14.191c5.865,2.701,8.603,7.172,9.87,10.484 C414.452,251.563,414.274,257.666,411.983,262.678z"/> </g> </g> <g> <g> <circle cx="35.397" cy="188.354" r="9.529"/> </g> </g> </g>
</svg>